<?xml version="1.0" encoding="utf-8"?>
<!-- Generator: Adobe Illustrator 18.1.1, SVG Export Plug-In . SVG Version: 6.00 Build 0)  -->
<svg version="1.1" id="Background_2_" xmlns="http://www.w3.org/2000/svg" xmlns:xlink="http://www.w3.org/1999/xlink" x="0px"
	 y="0px" viewBox="0 0 22 22" enable-background="new 0 0 22 22" xml:space="preserve">
<g id="Grid_2_" display="none" enable-background="new    ">
	<defs>
		<path id="SVGID_1_" enable-background="new    " d="M-1338.3,835.5h85V-664.3h-85V835.5z M-1233.3,835.5h85V-664.3h-85V835.5z
			 M-1128.3,835.5h85V-664.3h-85V835.5z M-1023.3,835.5h85V-664.3h-85V835.5z M-918.3,835.5h85V-664.3h-85V835.5z M-813.3,835.5h85
			V-664.3h-85V835.5z M-708.3,835.5h85V-664.3h-85V835.5z M-603.3,835.5h85V-664.3h-85V835.5z M-498.3,835.5h85V-664.3h-85V835.5z
			 M-393.3,835.5h85V-664.3h-85V835.5z M-288.3,835.5h85V-664.3h-85V835.5z M-183.3-664.3V835.5h85V-664.3H-183.3z"/>
	</defs>
	<clipPath id="SVGID_2_" display="inline">
		<use xlink:href="#SVGID_1_"  overflow="visible"/>
	</clipPath>
</g>
<g>
	<defs>
		<rect id="SVGID_3_" x="113.7" y="-664.3" width="1280" height="768"/>
	</defs>
	<clipPath id="SVGID_4_">
		<use xlink:href="#SVGID_3_"  overflow="visible"/>
	</clipPath>
</g>
<rect x="0" y="0" fill="none" width="22" height="22"/>
<g>
	<g>
		<circle fill="none" stroke="#F0592B" stroke-width="0.9512" stroke-miterlimit="10" cx="11" cy="11" r="9.5"/>
		<line fill="none" stroke="#F0592B" stroke-width="0.9512" stroke-miterlimit="10" x1="6" y1="11" x2="16" y2="11"/>
		<line fill="none" stroke="#F0592B" stroke-width="0.9512" stroke-miterlimit="10" x1="11" y1="16" x2="11" y2="6"/>
	</g>
</g>
</svg>
