<?xml version="1.0" encoding="utf-8"?>
<!-- Generator: Adobe Illustrator 18.1.1, SVG Export Plug-In . SVG Version: 6.00 Build 0)  -->
<svg version="1.1" id="Background_2_" xmlns="http://www.w3.org/2000/svg" xmlns:xlink="http://www.w3.org/1999/xlink" x="0px"
	 y="0px" viewBox="0 0 50 50" enable-background="new 0 0 50 50" xml:space="preserve">
<g id="Grid_2_" enable-background="new    ">
</g>
<g>
	<g>
		<g>
			<path fill="#F0592B" d="M13.2,35.2c0.2-1,1-3.5,1.8-5.6v-3.6c-0.3,0.8-0.6,1.8-1,2.9c-0.9,2.7-1.9,5.5-2,6.5l0,0.2l0.1,0.2
				c0.8,1,2,1.9,3.1,2.6v-1.4C14.4,36.4,13.7,35.8,13.2,35.2z"/>
			<path fill="#F0592B" d="M22.1,18.5v1.7c-0.3,0.3-1.4,1.2-3.6,1.6c-0.4,0.1-2.2,0.5-3.1,2.8h1.3c0.7-1.4,1.9-1.6,2-1.7
				c3.3-0.6,4.5-2.2,4.5-2.2l0.1-0.2v-2.1H22.1z"/>
		</g>
		<g>
			<path fill="#F0592B" d="M33.2,24.6h1.3c-1.1-2.3-2.8-2.7-3.1-2.7c-2.3-0.4-3.3-1.3-3.6-1.6v-1.7h-1.2v2.1l0.1,0.2
				c0,0.1,1.2,1.6,4.5,2.2C31.4,23,32.4,23.2,33.2,24.6z"/>
			<path fill="#F0592B" d="M38.1,35.3c-0.1-1.3-1.4-5.1-2.8-8.9v3.6c0.7,2.1,1.4,4.2,1.6,5.2c-0.6,0.7-1.3,1.3-2.1,1.8v1.4
				c1.1-0.7,2.3-1.6,3.2-2.6l0.1-0.2L38.1,35.3z"/>
		</g>
	</g>
	<g>
		<g>
			<g>
				<path fill="#F0592B" d="M29.3,12.8l-0.1-0.2l-1.1-0.1l0.3,1.4c0,0,0.2-0.1,0.3-0.1c0,0,0,0,0,0c0.3,0.1,0.2,0.8,0,1.5
					c-0.2,0.6-0.5,1-0.8,1c0,0,0,0-0.1,0C27.4,18,26.4,19,25,19c-1.5,0-2.4-1-3-2.7c0,0,0,0,0,0c-0.2,0-0.5-0.4-0.8-1
					c-0.2-0.7-0.3-1.4,0-1.5c0,0,0,0,0,0c0.1,0,0.3,0.2,0.3,0.2l0.1-1.4l-0.9,0.1l0,0.1c-0.3,0.1-0.9,0.5-0.9,1.7
					c0,0.4,0.1,0.9,0.3,1.3c0.3,0.8,0.6,1.3,1,1.5c1.1,2.5,2.9,2.9,3.9,2.9c1,0,2.8-0.4,3.9-2.8c0.4-0.2,0.8-0.7,1-1.6
					c0.2-0.5,0.4-1.6,0.1-2.3C29.9,13.2,29.6,13,29.3,12.8z"/>
			</g>
		</g>
	</g>
	<g>
		<path fill="#F0592B" d="M25,23.8c-1.8,0-3.5-0.7-4.5-1.8l0.9-0.8c0.8,0.8,2.2,1.4,3.6,1.4c1.5,0,2.9-0.5,3.6-1.4l0.9,0.8
			C28.5,23.2,26.8,23.8,25,23.8z"/>
	</g>
	<g>
		<path fill="#F0592B" d="M25,7c-2.8,0-4.7,1.6-4.7,4.1v2.3l1-0.1c0,0,0,0,0-0.1c0-0.5,0.1-0.9,0.2-1.4v-0.7c0-2.1,1.9-2.9,3.5-2.9
			c1.6,0,3.5,0.8,3.5,2.9V12l-0.1,0c0.2,0.4,0.3,0.8,0.4,1.3l1,0.1v-2.3C29.7,8.6,27.8,7,25,7z"/>
	</g>
	<g>
		<path fill="#F0592B" d="M21.6,14.9l-1.2-3.1l0.6-0.2c0.1,0,2.3-0.9,4.1-0.9c1.7,0,4,0.9,4.1,0.9l0.6,0.2l-1.2,3.1l-0.5-0.2
			c0,0-1.9-0.6-3-0.6c-1.1,0-2.8,0.6-2.8,0.6L21.6,14.9z M24.9,13c0.9,0,2.1,0.3,2.8,0.5l0.4-0.9c-0.7-0.2-2-0.6-3.1-0.6
			c-1,0-2.3,0.4-3.1,0.6l0.3,0.9C22.9,13.2,24,13,24.9,13z"/>
	</g>
	<g>
		<polygon fill="#F0592B" points="31.8,39.5 31.8,41.8 18.1,41.8 18.1,39.5 17,39.5 17,43 33,43 33,39.5 		"/>
	</g>
	<g>
		<path fill="#F0592B" d="M35.4,39.9H14.6V24.3h20.8V39.9z M15.8,38.7h18.4V25.5H15.8V38.7z"/>
	</g>
	<g>
		<path fill="#F0592B" d="M27.4,28.8h-4.8v-4.6h4.8V28.8z M23.8,27.7h2.4v-2.2h-2.4V27.7z"/>
	</g>
	<g>
		<path fill="#F0592B" d="M32.7,37.7h-1.2v-1.2h1.2V37.7z M30.3,37.7h-1.2v-1.2h1.2V37.7z M27.9,37.7h-1.2v-1.2h1.2V37.7z
			 M25.5,37.7h-1.2v-1.2h1.2V37.7z M23.2,37.7H22v-1.2h1.2V37.7z M20.8,37.7h-1.2v-1.2h1.2V37.7z M18.4,37.7h-1.2v-1.2h1.2V37.7z"/>
	</g>
</g>
<rect y="0" fill="none" width="50" height="50"/>
</svg>
