<?xml version="1.0" encoding="utf-8"?>
<!-- Generator: Adobe Illustrator 18.1.1, SVG Export Plug-In . SVG Version: 6.00 Build 0)  -->
<svg version="1.1" id="Layer_1" xmlns="http://www.w3.org/2000/svg" xmlns:xlink="http://www.w3.org/1999/xlink" x="0px" y="0px"
	 viewBox="0 0 26 26" enable-background="new 0 0 26 26" xml:space="preserve">
<g>
	<g>
		<g>
			<path fill="#00ACE4" d="M11.8,15.8v-0.5c0-0.7,0.1-1.2,0.3-1.7c0.2-0.4,0.6-0.9,1.2-1.4c0.8-0.7,1.3-1.2,1.5-1.5
				c0.2-0.3,0.3-0.8,0.3-1.2c0-0.6-0.2-1.1-0.6-1.4c-0.4-0.3-0.9-0.5-1.7-0.5c-0.5,0-0.9,0.1-1.4,0.2c-0.4,0.1-0.9,0.3-1.5,0.6
				L9.5,7.2c1.1-0.6,2.3-0.9,3.5-0.9c1.1,0,2,0.3,2.6,0.8s0.9,1.3,0.9,2.3c0,0.4-0.1,0.8-0.2,1.1c-0.1,0.3-0.3,0.6-0.5,0.9
				c-0.2,0.3-0.7,0.8-1.4,1.4c-0.6,0.5-1,0.9-1.2,1.3c-0.2,0.3-0.3,0.8-0.3,1.3v0.3H11.8z M11.4,18.5c0-0.8,0.4-1.2,1.1-1.2
				c0.3,0,0.6,0.1,0.8,0.3c0.2,0.2,0.3,0.5,0.3,0.9c0,0.4-0.1,0.7-0.3,0.9c-0.2,0.2-0.4,0.3-0.8,0.3c-0.3,0-0.6-0.1-0.8-0.3
				C11.5,19.2,11.4,18.9,11.4,18.5z"/>
		</g>
	</g>
	<g>
		<path fill="#00ACE4" d="M13,24.8C6.4,24.8,1.1,19.5,1.1,13S6.4,1.2,13,1.2S24.9,6.5,24.9,13S19.6,24.8,13,24.8z M13,2.3
			C7,2.3,2.2,7.1,2.2,13S7,23.7,13,23.7S23.8,18.9,23.8,13S19,2.3,13,2.3z"/>
	</g>
</g>
<rect fill="none" width="26" height="26"/>
</svg>
