<?xml version="1.0" encoding="utf-8"?>
<!-- Generator: Adobe Illustrator 18.1.1, SVG Export Plug-In . SVG Version: 6.00 Build 0)  -->
<svg version="1.1" id="Background_2_" xmlns="http://www.w3.org/2000/svg" xmlns:xlink="http://www.w3.org/1999/xlink" x="0px"
	 y="0px" viewBox="0 0 50 50" enable-background="new 0 0 50 50" xml:space="preserve">
<g id="Grid_2_" enable-background="new    ">
</g>
<g>
	<g>
		<polygon fill="#F0592B" points="43,33.9 25.5,33.9 25.5,32.7 41.7,32.7 41.7,11.1 17.8,11.1 17.8,28 16.5,28 16.6,9.9 43,9.9 		
			"/>
	</g>
	<g>
		<g>
			<path fill="#F0592B" d="M25.6,32.7l-1.4-0.9c2.9-1.8,5.2-3.5,5.5-5.3c0.1-0.6,0-1.1-0.3-1.6c-0.7-1.1-2.1-1.3-3.9-0.3
				c-1.5,0.9-3,1.1-4.4,1.4c-0.9,0.2-1.8,0.3-2.8,0.7c-1.3,0.5-2.9,1.7-4.2,2.7c-0.5,0.4-1.2,0.9-1.6,1.2v1.4
				c0.5-0.1,1.2-0.6,2.4-1.5c1.2-0.9,2.7-2.1,3.8-2.5c0.8-0.3,1.7-0.4,2.6-0.6c1.5-0.3,3.1-0.6,4.8-1.5c1.1-0.6,1.8-0.7,2.2-0.1
				c0.1,0.2,0.2,0.4,0.1,0.7c-0.3,1.5-3.6,3.6-5.8,5l-0.8,0.5l3.3,2.2h6.1c-3.4,2.2-7.9,4.9-9.3,4.9c-2.4,0-4.1-0.5-5.9-1
				c-1-0.3-2.2-0.6-3.5-0.8v1.3c1.1,0.2,2.2,0.5,3.1,0.8c1.9,0.5,3.7,1,6.3,1c2.5,0,10.8-5.6,11.7-6.3l1.7-1.1H25.6z"/>
		</g>
		<path fill="#F0592B" d="M13.3,39.1H7v-9.7h6.3V39.1z M8.3,37.9H12v-7.2H8.3V37.9z"/>
	</g>
	<g>
		<path fill="#F0592B" d="M33.6,16h-6.5V9.9h6.5V16z M28.4,14.8h4v-3.6h-4V14.8z"/>
	</g>
	<g>
		<path fill="#F0592B" d="M40.1,31.2h-1.3v-1.3h1.3V31.2z M37.6,31.2h-1.3v-1.3h1.3V31.2z M35.1,31.2h-1.3v-1.3h1.3V31.2z
			 M32.6,31.2h-1.3v-1.3h1.3V31.2z M30.1,31.2h-1.3v-1.3h1.3V31.2z"/>
	</g>
	<g>
		<circle fill="#F0592B" cx="10.1" cy="36.4" r="0.6"/>
	</g>
</g>
<rect y="0" fill="none" width="50" height="50"/>
</svg>
