<?xml version="1.0" encoding="utf-8"?>
<!-- Generator: Adobe Illustrator 18.1.1, SVG Export Plug-In . SVG Version: 6.00 Build 0)  -->
<svg version="1.1" id="Layer_1" xmlns="http://www.w3.org/2000/svg" xmlns:xlink="http://www.w3.org/1999/xlink" x="0px" y="0px"
	 viewBox="0 0 20 20" enable-background="new 0 0 20 20" xml:space="preserve">
<g>
	<g>
		<path fill="none" stroke="#737373" stroke-miterlimit="10" d="M3.8,8.2C4,7.7,4.1,7.3,4.4,6.8L3.2,5.4C2.9,5,2.9,4.4,3.3,4.1
			l0.8-0.8c0.4-0.4,0.9-0.4,1.3-0.1l1.4,1.2c0.4-0.2,0.9-0.4,1.4-0.6l0.2-1.9C8.5,1.4,8.9,1,9.4,1h1.2c0.5,0,0.9,0.4,1,0.9l0.2,1.9
			c0.5,0.1,0.9,0.3,1.4,0.6l1.4-1.2c0.4-0.3,1-0.3,1.3,0.1l0.8,0.8c0.4,0.4,0.4,0.9,0.1,1.3l-1.2,1.4c0.2,0.4,0.4,0.9,0.6,1.4
			l1.8,0.2c0.5,0.1,0.9,0.5,0.9,1v1.2c0,0.5-0.4,0.9-0.9,1l-1.8,0.2c-0.1,0.5-0.3,0.9-0.6,1.4l1.2,1.4c0.3,0.4,0.3,1-0.1,1.3
			l-0.8,0.8c-0.4,0.4-0.9,0.4-1.3,0.1l-1.4-1.2c-0.4,0.2-0.9,0.4-1.4,0.6l-0.2,1.9c-0.1,0.5-0.5,0.9-1,0.9H9.4c-0.5,0-0.9-0.4-1-0.9
			l-0.2-1.9c-0.5-0.1-0.9-0.3-1.4-0.6l-1.4,1.2c-0.4,0.3-1,0.3-1.3-0.1l-0.8-0.8c-0.4-0.4-0.4-0.9-0.1-1.3l1.2-1.4
			c-0.2-0.4-0.4-0.9-0.6-1.4L2,11.6c-0.5-0.1-0.9-0.5-0.9-1V9.4c0-0.5,0.4-0.9,0.9-1L3.8,8.2z"/>
		<ellipse fill="none" stroke="#737373" stroke-miterlimit="10" cx="10" cy="10" rx="3" ry="3"/>
	</g>
</g>
<rect x="0" fill="none" width="20" height="20"/>
</svg>
