<?xml version="1.0" encoding="utf-8"?>
<!-- Generator: Adobe Illustrator 18.1.1, SVG Export Plug-In . SVG Version: 6.00 Build 0)  -->
<svg version="1.1" id="Background_2_" xmlns="http://www.w3.org/2000/svg" xmlns:xlink="http://www.w3.org/1999/xlink" x="0px"
	 y="0px" viewBox="0 0 50 50" enable-background="new 0 0 50 50" xml:space="preserve">
<g id="Grid_2_" enable-background="new    ">
</g>
<g>
	<g>
		<path fill="#F0592B" d="M44.5,12.9c-0.4-0.7-1.2-1.2-2-1.2h-1.6c-0.8,0-1.6,0.4-2,1.1h-1.3c-1.3,0-2.4,1.1-2.4,2.4
			c0,1.3,1.1,2.4,2.4,2.4h6.6c1.3,0,2.4-1.1,2.4-2.4C46.5,14,45.6,13.1,44.5,12.9z M44.1,16.4h-6.6c-0.7,0-1.2-0.5-1.2-1.2
			s0.5-1.2,1.2-1.2h2.2c0-0.6,0.5-1.1,1.2-1.1h1.6c0.6,0,1.1,0.5,1.2,1.1h0.5c0.7,0,1.2,0.5,1.2,1.2S44.7,16.4,44.1,16.4z"/>
		<path fill="#F0592B" d="M25.3,8.2c-0.4-0.7-1.2-1.2-2-1.2h-1c-0.9,0-1.6,0.5-2,1.2c-1.1,0.2-1.9,1.2-1.9,2.3
			c0,1.3,1.1,2.4,2.4,2.4h4.3c1.3,0,2.4-1.1,2.4-2.4C27.3,9.3,26.4,8.3,25.3,8.2z M24.9,11.7h-4.3c-0.7,0-1.2-0.5-1.2-1.2
			c0-0.7,0.5-1.2,1.2-1.2h0.4c0-0.6,0.6-1.1,1.2-1.1h1c0.6,0,1.1,0.5,1.2,1.1h0.5c0.7,0,1.2,0.5,1.2,1.2
			C26.1,11.2,25.6,11.7,24.9,11.7z"/>
	</g>
	<g>
		<polygon fill="#F0592B" points="42.6,28.6 39.3,24.5 34.3,24.5 34.3,25.7 38.7,25.7 41.6,29.3 41.8,29.5 42,29.6 46.3,31.9 
			46.3,36.7 47.5,36.7 47.5,31.2 		"/>
	</g>
	<g>
		<g>
			<polygon fill="#F0592B" points="11.2,36.7 11.2,20.7 33.1,20.7 33.1,36.7 34.3,36.7 34.3,19.5 10,19.5 10,36.7 			"/>
		</g>
	</g>
	<g>
		<rect x="10.8" y="31.7" fill="#F0592B" width="23" height="1.2"/>
		<rect x="10.8" y="29.1" fill="#F0592B" width="23" height="1.2"/>
	</g>
	<g>
		<polygon fill="#F0592B" points="40.4,32.8 33.7,32.8 33.7,31.7 39.8,31.7 41.6,28.9 42.6,29.6 		"/>
	</g>
	<g>
		<g>
			<g>
				<rect x="26.5" y="24.6" fill="#F0592B" width="1.2" height="1.2"/>
			</g>
			<g>
				<rect x="24" y="24.6" fill="#F0592B" width="1.2" height="1.2"/>
			</g>
			<g>
				<rect x="16.6" y="24.6" fill="#F0592B" width="1.2" height="1.2"/>
			</g>
			<g>
				<rect x="19.1" y="24.6" fill="#F0592B" width="1.2" height="1.2"/>
			</g>
			<g>
				<rect x="21.6" y="24.6" fill="#F0592B" width="1.2" height="1.2"/>
			</g>
		</g>
	</g>
	<g>
		<rect x="44" y="34.1" fill="#F0592B" width="1.2" height="1.2"/>
	</g>
	<g>
		<rect x="4" y="30.6" fill="#F0592B" width="4.6" height="1.2"/>
		<rect x="1.4" y="27.6" fill="#F0592B" width="3.9" height="1.2"/>
		<rect x="6.1" y="24.8" fill="#F0592B" width="2.7" height="1.2"/>
	</g>
	<path fill="#F0592B" d="M18,43c-2,0-3.6-1.6-3.6-3.6c0-2,1.6-3.6,3.6-3.6s3.6,1.6,3.6,3.6C21.6,41.4,20,43,18,43z M18,37
		c-1.3,0-2.4,1.1-2.4,2.4c0,1.3,1.1,2.4,2.4,2.4c1.3,0,2.4-1.1,2.4-2.4C20.4,38.1,19.4,37,18,37z"/>
	<g>
		<circle fill="#F0592B" cx="18" cy="39.4" r="0.6"/>
	</g>
	<path fill="#F0592B" d="M41.5,43c-2,0-3.6-1.6-3.6-3.6c0-2,1.6-3.6,3.6-3.6c2,0,3.6,1.6,3.6,3.6C45.1,41.4,43.5,43,41.5,43z
		 M41.5,37c-1.3,0-2.4,1.1-2.4,2.4c0,1.3,1.1,2.4,2.4,2.4c1.3,0,2.4-1.1,2.4-2.4C43.9,38.1,42.9,37,41.5,37z"/>
	<g>
		<circle fill="#F0592B" cx="41.5" cy="39.4" r="0.6"/>
	</g>
	<g>
		<path fill="#F0592B" d="M38.7,38.5H20.9c0.1,0.3,0.2,0.6,0.2,0.9c0,0.1,0,0.2,0,0.3h17.6c0-0.1,0-0.2,0-0.3
			C38.5,39.1,38.6,38.8,38.7,38.5z"/>
		<path fill="#F0592B" d="M9,36.3v3.4h6.1c0-0.1,0-0.2,0-0.3c0-0.3,0.1-0.6,0.2-0.9h-5v-1h5.6c0.5-0.7,1.4-1.1,2.3-1.1
			c0.9,0,1.7,0.4,2.3,1.1h18.9c0.5-0.7,1.4-1.1,2.3-1.1c0.9,0,1.7,0.4,2.3,1.1h3.6v1h-3.1c0.1,0.3,0.2,0.6,0.2,0.9
			c0,0.1,0,0.2,0,0.3h4.1v-3.4H9z"/>
	</g>
</g>
<rect y="0" fill="none" width="50" height="50"/>
</svg>
