<?xml version="1.0" encoding="utf-8"?>
<!-- Generator: Adobe Illustrator 18.1.1, SVG Export Plug-In . SVG Version: 6.00 Build 0)  -->
<svg version="1.1" id="Layer_1" xmlns="http://www.w3.org/2000/svg" xmlns:xlink="http://www.w3.org/1999/xlink" x="0px" y="0px"
	 viewBox="0 0 22 20" enable-background="new 0 0 22 20" xml:space="preserve">
<g>
	<g>
		<path fill="#737373" d="M20.8,4.8C20.8,4.8,20.8,4.8,20.8,4.8C20.8,4.8,20.8,4.8,20.8,4.8C20.8,4.7,20.8,4.7,20.8,4.8L20.8,4.8
			l0-0.1c0,0,0,0,0,0l0,0L11,1.3c0,0-0.1,0-0.1,0L7.8,2.4L5,3.3L1.2,4.7l0,0c0,0,0,0,0,0c0,0,0,0,0,0l0,0l0,0c0,0,0,0,0,0s0,0,0,0
			l0,0l0,0v9.9c0,0,0,0.1,0.1,0.1l9.7,4l0,0l0,0l0,0c0,0,0,0,0,0l0,0l0,0l0,0l0,0c0,0,0,0,0,0l0,0l0,0l0,0l9.7-4
			c0,0,0.1-0.1,0.1-0.1L20.8,4.8C20.8,4.8,20.8,4.8,20.8,4.8L20.8,4.8z M11,1.5l9.3,3.3L17.1,6L8.2,2.5L11,1.5z M14.7,6.9L5.5,3.5
			l2.4-0.8l8.9,3.5L14.7,6.9z M14.8,7.1L17,6.3v3.5l-2.2,0.8V7.1z M5.1,3.6L14.3,7L11,8.2L1.7,4.8L5.1,3.6z M1.4,5l9.5,3.5v10
			l-9.5-3.8V5z M11.1,18.4v-10l3.4-1.3v3.6c0,0,0,0.1,0,0.1c0,0,0,0,0.1,0c0,0,0,0,0,0l2.5-0.9c0,0,0.1-0.1,0.1-0.1V6.2L20.6,5v9.6
			L11.1,18.4z"/>
		<path fill="#737373" d="M11,19L11,19c-0.1,0-0.2,0-0.2,0l-9.7-4c-0.2,0-0.3-0.2-0.3-0.4V4.8c0-0.1,0-0.2,0.1-0.3l0,0
			c0-0.1,0.1-0.1,0.2-0.1L10.8,1c0,0,0.1,0,0.1,0H11c0,0,0.1,0,0.1,0l9.7,3.4c0,0,0.1,0,0.1,0.1c0.1,0,0.1,0.1,0.1,0.2
			c0,0,0,0.1,0,0.1v9.9c0,0.2-0.1,0.3-0.2,0.3l-9.7,4C11.1,19,11.1,19,11,19z M11.4,8.6V18l8.9-3.6v-9l-2.7,1v3.5
			c0,0.1-0.1,0.3-0.2,0.4l-2.5,0.9c-0.1,0-0.2,0.1-0.4-0.1c-0.1-0.1-0.1-0.2-0.1-0.3V7.6L11.4,8.6z M1.7,14.4l8.9,3.6V8.6L1.7,5.4
			V14.4z M15.1,7.3v2.9l1.7-0.6V6.7L15.1,7.3z M2.5,4.8L11,7.9L13.5,7L5.1,3.9L2.5,4.8z M6.3,3.5l8.4,3.1L16,6.1L7.8,2.9L6.3,3.5z
			 M9,2.5l8.1,3.2l2.4-0.9l-8.5-3L9,2.5z"/>
	</g>
	<g>
		<path fill="#737373" d="M8.9,15.7L2.5,13c-0.1,0-0.1,0-0.2,0.1c0,0.1,0,0.1,0.1,0.2l6.4,2.7c0,0,0,0,0,0c0,0,0.1,0,0.1-0.1
			C9,15.8,9,15.7,8.9,15.7z"/>
		<path fill="#737373" d="M8.9,16.2L8.9,16.2c-0.1,0-0.1,0-0.1,0l-6.4-2.7c-0.1,0-0.2-0.1-0.2-0.2c0-0.1-0.1-0.2,0-0.3
			c0.1-0.2,0.2-0.3,0.4-0.3c0,0,0.1,0,0.1,0l6.5,2.7c0.1,0,0.2,0.1,0.2,0.2c0,0.1,0,0.2,0,0.3C9.2,16.1,9.1,16.2,8.9,16.2z"/>
	</g>
	<g>
		<path fill="#737373" d="M2.8,10.1L4,8.9v3.7c0,0.1,0.1,0.1,0.1,0.1s0.1-0.1,0.1-0.1V9.1l1.1,2.1c0,0,0.1,0.1,0.1,0.1
			c0,0,0,0,0.1,0c0.1,0,0.1-0.1,0-0.2L4.3,8.5l0,0l0,0c0,0,0,0,0,0c0,0,0,0,0,0c0,0,0,0,0,0c0,0,0,0,0,0l0,0l0,0c0,0,0,0,0,0l0,0
			c0,0,0,0,0,0l0,0l0,0L2.6,9.9c0,0,0,0.1,0,0.2C2.6,10.2,2.7,10.2,2.8,10.1z"/>
		<path fill="#737373" d="M4.2,13c-0.2,0-0.4-0.2-0.4-0.4V9.5L3,10.3c-0.2,0.2-0.5,0.1-0.6-0.1c-0.1-0.1-0.1-0.4,0-0.5l1.5-1.5
			c0,0,0.1,0,0.1-0.1c0,0,0.1,0,0.2,0h0.1c0.1,0,0.1,0,0.2,0.1c0,0,0.1,0,0.1,0c0,0,0.1,0.1,0.1,0.1l1.3,2.5c0.1,0.1,0.1,0.2,0,0.3
			c0,0.1-0.1,0.2-0.2,0.2c-0.1,0.1-0.2,0.1-0.2,0.1c-0.2,0-0.3-0.1-0.4-0.2l-0.6-1.1v2.4C4.6,12.8,4.4,13,4.2,13z"/>
	</g>
	<g>
		<path fill="#737373" d="M6.6,11.9l1.3-1.2v3.7c0,0.1,0.1,0.1,0.1,0.1s0.1-0.1,0.1-0.1v-3.5L9.2,13c0,0,0.1,0.1,0.1,0.1
			c0,0,0,0,0.1,0c0.1,0,0.1-0.1,0-0.2l-1.3-2.5l0,0l0,0c0,0,0,0,0,0c0,0,0,0,0,0c0,0,0,0,0,0c0,0,0,0,0,0l0,0l0,0c0,0,0,0,0,0l0,0
			c0,0,0,0,0,0l0,0l0,0l-1.5,1.5c0,0,0,0.1,0,0.2C6.5,12,6.6,12,6.6,11.9z"/>
		<path fill="#737373" d="M8,14.7c-0.2,0-0.4-0.2-0.4-0.4v-3l-0.8,0.8c-0.1,0.1-0.4,0.1-0.6,0c-0.1-0.2-0.1-0.4,0-0.6l1.5-1.5
			c0,0,0.1,0,0.1-0.1c0,0,0.1,0,0.1,0h0.1c0.1,0,0.1,0,0.2,0.1c0,0,0.1,0,0.1,0c0,0,0.1,0.1,0.1,0.1l1.3,2.5c0.1,0.1,0.1,0.2,0,0.3
			c0,0.1-0.1,0.2-0.2,0.2c-0.1,0.1-0.2,0.1-0.2,0.1c-0.2,0-0.3-0.1-0.4-0.2L8.4,12v2.3C8.4,14.5,8.3,14.7,8,14.7z"/>
	</g>
</g>
<rect fill="none" width="22" height="20"/>
</svg>
