<?xml version="1.0" encoding="utf-8"?>
<!-- Generator: Adobe Illustrator 18.1.1, SVG Export Plug-In . SVG Version: 6.00 Build 0)  -->
<svg version="1.1" id="Background_2_" xmlns="http://www.w3.org/2000/svg" xmlns:xlink="http://www.w3.org/1999/xlink" x="0px"
	 y="0px" viewBox="0 0 26 26" enable-background="new 0 0 26 26" xml:space="preserve">
<g id="Grid_2_" display="none" enable-background="new    ">
	<defs>
		<path id="SVGID_1_" enable-background="new    " d="M-1272.7,1288.9h85V-210.9h-85V1288.9z M-1167.7,1288.9h85V-210.9h-85V1288.9z
			 M-1062.7,1288.9h85V-210.9h-85V1288.9z M-957.7,1288.9h85V-210.9h-85V1288.9z M-852.7,1288.9h85V-210.9h-85V1288.9z
			 M-747.7,1288.9h85V-210.9h-85V1288.9z M-642.7,1288.9h85V-210.9h-85V1288.9z M-537.7,1288.9h85V-210.9h-85V1288.9z
			 M-432.7,1288.9h85V-210.9h-85V1288.9z M-327.7,1288.9h85V-210.9h-85V1288.9z M-222.7,1288.9h85V-210.9h-85V1288.9z M-117.7-210.9
			v1499.8h85V-210.9H-117.7z"/>
	</defs>
	<clipPath id="SVGID_2_" display="inline">
		<use xlink:href="#SVGID_1_"  overflow="visible"/>
	</clipPath>
</g>
<g>
	<defs>
		<rect id="SVGID_3_" x="179.3" y="-210.9" width="1280" height="768"/>
	</defs>
	<clipPath id="SVGID_4_">
		<use xlink:href="#SVGID_3_"  overflow="visible"/>
	</clipPath>
</g>
<rect x="0" y="0" fill="none" width="26" height="26"/>
<path fill="none" stroke="#30373B" stroke-width="1.2037" stroke-miterlimit="10" d="M9.7,20.2l4,4l3.3-3.3
	c-0.5-0.2-0.9-0.5-1.3-0.9c-1.3-1.3-1.4-3.4-0.2-4.6s3.3-1.1,4.6,0.2c0.4,0.4,0.7,0.9,0.9,1.3l3.3-3.3l-4-4c0.5-0.2,0.9-0.5,1.3-0.9
	c1.3-1.3,1.4-3.4,0.2-4.6c-1.2-1.2-3.3-1.1-4.6,0.2c-0.4,0.4-0.7,0.9-0.9,1.3l-4-4L9,5.1C9.5,5.3,10,5.6,10.4,6
	c1.3,1.3,1.4,3.4,0.2,4.6S7.3,11.7,6,10.4C5.6,10,5.3,9.5,5.2,9l-3.3,3.3l4,4c-0.5,0.2-0.9,0.5-1.3,0.9c-1.3,1.3-1.4,3.4-0.2,4.6
	c1.2,1.2,3.3,1.1,4.6-0.2C9.2,21.1,9.5,20.7,9.7,20.2z"/>
</svg>
