<?xml version="1.0" encoding="iso-8859-1"?>
<!-- Generator: Adobe Illustrator 16.0.0, SVG Export Plug-In . SVG Version: 6.00 Build 0)  -->
<!DOCTYPE svg PUBLIC "-//W3C//DTD SVG 1.1//EN" "http://www.w3.org/Graphics/SVG/1.1/DTD/svg11.dtd">
<svg xmlns="http://www.w3.org/2000/svg" xmlns:xlink="http://www.w3.org/1999/xlink" version="1.1" id="Capa_1" x="0px" y="0px" width="512px" height="512px" viewBox="0 0 335.11 335.109" style="enable-background:new 0 0 335.11 335.109;" xml:space="preserve">
<g>
	<g>
		<g>
			<path d="M223.607,97.989H11.241C5.029,97.989,0,103.03,0,109.239v212.369c0,6.202,5.029,11.24,11.241,11.24h212.366     c6.215,0,11.241-5.038,11.241-11.24V109.233C234.848,103.03,229.822,97.989,223.607,97.989z M212.372,120.475v28.808H22.485     v-28.808H212.372z" fill="#f0592b"/>
			<rect x="29.208" y="128.118" width="16.853" height="16.868" fill="#f0592b"/>
			<rect x="54.497" y="128.118" width="16.855" height="16.868" fill="#f0592b"/>
			<rect x="79.801" y="128.118" width="16.858" height="16.868" fill="#f0592b"/>
		</g>
		<g>
			<path d="M323.863,2.261H111.503c-6.215,0-11.253,5.038-11.253,11.247v76.057h22.488h124.299v125.074v22.481h76.825     c6.221,0,11.247-5.031,11.247-11.234V13.502C335.11,7.299,330.083,2.261,323.863,2.261z M312.616,53.557H122.738V24.749h189.877     V53.557z" fill="#f0592b"/>
			<rect x="129.452" y="32.384" width="16.867" height="16.874" fill="#f0592b"/>
			<rect x="154.738" y="32.384" width="16.876" height="16.874" fill="#f0592b"/>
			<rect x="180.036" y="32.384" width="16.874" height="16.874" fill="#f0592b"/>
		</g>
	</g>
</g>
<g>
</g>
<g>
</g>
<g>
</g>
<g>
</g>
<g>
</g>
<g>
</g>
<g>
</g>
<g>
</g>
<g>
</g>
<g>
</g>
<g>
</g>
<g>
</g>
<g>
</g>
<g>
</g>
<g>
</g>
</svg>
