<?xml version="1.0" encoding="utf-8"?>
<!-- Generator: Adobe Illustrator 18.1.1, SVG Export Plug-In . SVG Version: 6.00 Build 0)  -->
<svg version="1.1" id="Layer_1" xmlns="http://www.w3.org/2000/svg" xmlns:xlink="http://www.w3.org/1999/xlink" x="0px" y="0px"
	 viewBox="0 0 26 26" enable-background="new 0 0 26 26" xml:space="preserve">
<g>
	<path fill="none" stroke="#30373B" stroke-width="1.3256" stroke-miterlimit="10" d="M13,17c-1.9,0-4.1-2.1-4.9-5
		c-0.7,0-1.3-0.8-1.4-1.9c-0.1-1,0.4-1.9,1-2C7.9,4.1,9,1.8,13,1.8s5.1,2.3,5.3,6.3c0.6,0.2,1.1,1,1,2c-0.1,1-0.7,1.9-1.4,1.9
		C17.1,14.9,14.9,17,13,17z"/>
	<path fill="none" stroke="#30373B" stroke-width="1.3256" stroke-linejoin="round" stroke-miterlimit="10" d="M17,14.6
		c4.3,1,7.3,3.2,7.3,7.6c-3,1.4-7.4,2-11.3,2c-3.9,0-8.3-0.6-11.3-2c0-4.4,3-6.6,7.3-7.6"/>
</g>
<rect fill="none" width="26" height="26"/>
</svg>
