<?xml version="1.0" encoding="utf-8"?>
<!-- Generator: Adobe Illustrator 18.1.1, SVG Export Plug-In . SVG Version: 6.00 Build 0)  -->
<svg version="1.1" id="Background_2_" xmlns="http://www.w3.org/2000/svg" xmlns:xlink="http://www.w3.org/1999/xlink" x="0px"
	 y="0px" viewBox="0 0 22 22" enable-background="new 0 0 22 22" xml:space="preserve">
<g id="Grid_2_" display="none" enable-background="new    ">
	<defs>
		<path id="SVGID_1_" enable-background="new    " d="M-1368.3,835.5h85V-664.3h-85V835.5z M-1263.3,835.5h85V-664.3h-85V835.5z
			 M-1158.3,835.5h85V-664.3h-85V835.5z M-1053.3,835.5h85V-664.3h-85V835.5z M-948.3,835.5h85V-664.3h-85V835.5z M-843.3,835.5h85
			V-664.3h-85V835.5z M-738.3,835.5h85V-664.3h-85V835.5z M-633.3,835.5h85V-664.3h-85V835.5z M-528.3,835.5h85V-664.3h-85V835.5z
			 M-423.3,835.5h85V-664.3h-85V835.5z M-318.3,835.5h85V-664.3h-85V835.5z M-213.3-664.3V835.5h85V-664.3H-213.3z"/>
	</defs>
	<clipPath id="SVGID_2_" display="inline">
		<use xlink:href="#SVGID_1_"  overflow="visible"/>
	</clipPath>
</g>
<g>
	<defs>
		<rect id="SVGID_3_" x="83.7" y="-664.3" width="1280" height="768"/>
	</defs>
	<clipPath id="SVGID_4_">
		<use xlink:href="#SVGID_3_"  overflow="visible"/>
	</clipPath>
</g>
<rect x="0" y="0" fill="none" width="22" height="22"/>
<g>
	<g>
		<circle fill="none" stroke="#30373B" stroke-width="0.9512" stroke-miterlimit="10" cx="11" cy="11" r="9.5"/>
		<line fill="none" stroke="#30373B" stroke-width="0.9512" stroke-miterlimit="10" x1="6" y1="11" x2="16" y2="11"/>
		<line fill="none" stroke="#30373B" stroke-width="0.9512" stroke-miterlimit="10" x1="11" y1="16" x2="11" y2="6"/>
	</g>
</g>
</svg>
