<?xml version="1.0" encoding="utf-8"?>
<!-- Generator: Adobe Illustrator 18.1.1, SVG Export Plug-In . SVG Version: 6.00 Build 0)  -->
<svg version="1.1" id="Layer_1" xmlns="http://www.w3.org/2000/svg" xmlns:xlink="http://www.w3.org/1999/xlink" x="0px" y="0px"
	 viewBox="0 0 20 20" enable-background="new 0 0 20 20" xml:space="preserve">
<g>
	<g>
		<path fill="none" stroke="#737373" stroke-miterlimit="10" d="M19.5,1.5h-19v13.6c10.7,0,13.6,0,19,0V1.5L19.5,1.5z"/>
		<path fill="none" stroke="#737373" stroke-miterlimit="10" d="M3.9,8.9c-0.7,0-1.3,0.6-1.3,1.3c0,0.7,0.6,1.3,1.3,1.3
			c0.7,0,1.3-0.6,1.3-1.3C5.1,9.5,4.6,8.9,3.9,8.9L3.9,8.9z M8,4.7C7.3,4.7,6.7,5.3,6.7,6c0,0.7,0.6,1.3,1.3,1.3
			c0.7,0,1.3-0.6,1.3-1.3C9.2,5.3,8.7,4.7,8,4.7L8,4.7z M12.1,8.5c-0.7,0-1.3,0.6-1.3,1.3c0,0.7,0.6,1.3,1.3,1.3
			c0.7,0,1.3-0.6,1.3-1.3C13.3,9,12.8,8.5,12.1,8.5L12.1,8.5z M16.2,6.6c-0.7,0-1.3,0.6-1.3,1.3c0,0.7,0.6,1.3,1.3,1.3
			c0.7,0,1.3-0.6,1.3-1.3C17.4,7.1,16.9,6.6,16.2,6.6L16.2,6.6z"/>
		<line fill="none" stroke="#737373" stroke-miterlimit="10" x1="5" y1="9" x2="6.9" y2="7.1"/>
		<line fill="none" stroke="#737373" stroke-miterlimit="10" x1="9.1" y1="7" x2="11.1" y2="8.8"/>
		<line fill="none" stroke="#737373" stroke-miterlimit="10" x1="13.3" y1="9.2" x2="14.8" y2="8.5"/>
		<line fill="none" stroke="#737373" stroke-miterlimit="10" x1="5.5" y1="18.5" x2="14.6" y2="18.5"/>
		<line fill="none" stroke="#737373" stroke-miterlimit="10" x1="7.7" y1="18" x2="7.7" y2="15.3"/>
		<line fill="none" stroke="#737373" stroke-miterlimit="10" x1="12.3" y1="18" x2="12.3" y2="15.3"/>
	</g>
</g>
<rect x="0" fill="none" width="20" height="20"/>
</svg>
