<?xml version="1.0" encoding="utf-8"?>
<!-- Generator: Adobe Illustrator 18.1.1, SVG Export Plug-In . SVG Version: 6.00 Build 0)  -->
<svg version="1.1" id="Layer_1" xmlns="http://www.w3.org/2000/svg" xmlns:xlink="http://www.w3.org/1999/xlink" x="0px" y="0px"
	 viewBox="0 0 20 20" enable-background="new 0 0 20 20" xml:space="preserve">
<g>
	<path fill="none" stroke="#737373" stroke-miterlimit="10" d="M17,17.5c0,0.6-0.5,1-1,1s-1-0.5-1-1c0-0.1-0.1-0.2-0.2-0.2h0
		c-0.1,0-0.2,0.1-0.2,0.2c0,0.6-0.5,1-1,1c-0.5,0-0.9-0.4-1-0.9c0-0.1-0.1-0.1-0.2-0.2c-0.1,0-0.2,0.1-0.2,0.2
		c-0.1,0.5-0.5,0.9-1,0.9c-0.5,0-0.9-0.4-1-0.9c0-0.1-0.1-0.2-0.2-0.2c0,0,0,0,0,0c-0.1,0-0.2,0.1-0.2,0.2c-0.1,0.5-0.5,0.9-1,0.9
		c-0.5,0-0.9-0.4-1-0.9c0-0.1-0.1-0.2-0.2-0.2c0,0,0,0,0,0c-0.1,0-0.2,0.1-0.2,0.2c-0.1,0.5-0.5,0.9-1,0.9c-0.5,0-0.9-0.4-1-0.9
		c0-0.1-0.1-0.2-0.2-0.2c-0.1,0-0.2,0.1-0.2,0.2c-0.1,0.5-0.5,0.9-1,0.9c-0.5,0-0.9-0.4-1-0.9L3,2.5c0,0,0,0,0,0c0-0.6,0.5-1,1-1
		s1,0.5,1,1c0,0.1,0.1,0.2,0.2,0.2h0c0.1,0,0.2-0.1,0.2-0.2c0-0.6,0.5-1,1-1c0.5,0,0.9,0.4,1,0.9c0,0.1,0.1,0.2,0.2,0.2l0,0
		c0.1,0,0.2-0.1,0.2-0.2c0.1-0.5,0.5-0.9,1-0.9c0.5,0,0.9,0.4,1,0.9c0,0.1,0.1,0.2,0.2,0.2c0,0,0,0,0,0c0.1,0,0.2-0.1,0.2-0.2
		c0.1-0.5,0.5-0.9,1-0.9c0.5,0,0.9,0.4,1,0.9c0,0.1,0.1,0.2,0.2,0.2c0,0,0,0,0,0c0.1,0,0.2-0.1,0.2-0.2c0.1-0.5,0.5-0.9,1-0.9
		c0.5,0,0.9,0.4,1,0.9c0,0.1,0.1,0.2,0.2,0.2h0c0.1,0,0.2-0.1,0.2-0.2c0.1-0.5,0.5-0.9,1-0.9c0.5,0,0.9,0.4,1,0.9L17,17.5
		C17,17.5,17,17.5,17,17.5z"/>
	<g>
		<line fill="none" stroke="#737373" stroke-linecap="round" stroke-miterlimit="10" x1="5.2" y1="5.9" x2="14.8" y2="5.9"/>
		<line fill="none" stroke="#737373" stroke-linecap="round" stroke-miterlimit="10" x1="5.2" y1="8.1" x2="14.8" y2="8.1"/>
		<line fill="none" stroke="#737373" stroke-linecap="round" stroke-miterlimit="10" x1="5.2" y1="10.3" x2="14.8" y2="10.3"/>
		<line fill="none" stroke="#737373" stroke-linecap="round" stroke-miterlimit="10" x1="5.2" y1="12.6" x2="14.8" y2="12.6"/>
		<line fill="none" stroke="#737373" stroke-linecap="round" stroke-miterlimit="10" x1="10.5" y1="14.8" x2="14.8" y2="14.8"/>
	</g>
</g>
<rect fill="none" width="20" height="20"/>
</svg>
