<?xml version="1.0" encoding="utf-8"?>
<!-- Generator: Adobe Illustrator 18.1.1, SVG Export Plug-In . SVG Version: 6.00 Build 0)  -->
<svg version="1.1" id="Background_2_" xmlns="http://www.w3.org/2000/svg" xmlns:xlink="http://www.w3.org/1999/xlink" x="0px"
	 y="0px" viewBox="0 0 24 24" enable-background="new 0 0 24 24" xml:space="preserve">
<g id="Grid_2_" display="none" enable-background="new    ">
	<defs>
		<path id="SVGID_1_" enable-background="new    " d="M-1317.7,886.8h85V-613h-85V886.8z M-1212.7,886.8h85V-613h-85V886.8z
			 M-1107.7,886.8h85V-613h-85V886.8z M-1002.7,886.8h85V-613h-85V886.8z M-897.7,886.8h85V-613h-85V886.8z M-792.7,886.8h85V-613
			h-85V886.8z M-687.7,886.8h85V-613h-85V886.8z M-582.7,886.8h85V-613h-85V886.8z M-477.7,886.8h85V-613h-85V886.8z M-372.7,886.8
			h85V-613h-85V886.8z M-267.7,886.8h85V-613h-85V886.8z M-162.7-613V886.8h85V-613H-162.7z"/>
	</defs>
	<clipPath id="SVGID_2_" display="inline">
		<use xlink:href="#SVGID_1_"  overflow="visible"/>
	</clipPath>
</g>
<g>
	<defs>
		<rect id="SVGID_3_" x="134.3" y="-613" width="1280" height="768"/>
	</defs>
	<clipPath id="SVGID_4_">
		<use xlink:href="#SVGID_3_"  overflow="visible"/>
	</clipPath>
</g>
<rect x="0" y="0" fill="none" width="24" height="24"/>
<g>
	<circle fill="none" stroke="#00ACE4" stroke-miterlimit="10" cx="12" cy="12" r="11.3"/>
	<line fill="none" stroke="#00ACE4" stroke-miterlimit="10" x1="12" y1="6" x2="12" y2="18"/>
	<line fill="none" stroke="#00ACE4" stroke-miterlimit="10" x1="6" y1="12" x2="18" y2="12"/>
</g>
</svg>
