<?xml version="1.0" encoding="utf-8"?>
<!-- Generator: Adobe Illustrator 18.1.1, SVG Export Plug-In . SVG Version: 6.00 Build 0)  -->
<svg version="1.1" id="Layer_1" xmlns="http://www.w3.org/2000/svg" xmlns:xlink="http://www.w3.org/1999/xlink" x="0px" y="0px"
	 viewBox="0 0 26 26" enable-background="new 0 0 26 26" xml:space="preserve">
<path fill="none" stroke="#30373B" stroke-width="1.2037" stroke-miterlimit="10" d="M11.6,2.5L3.2,9.6C3.1,9.7,3,9.9,3,10.1v13.3
	C3,23.7,3.3,24,3.6,24h5.6c0.3,0,0.6-0.3,0.6-0.6v-8.4c0-0.4,0.3-0.6,0.6-0.6h5c0.3,0,0.6,0.3,0.6,0.6v8.4c0,0.4,0.3,0.6,0.6,0.6
	h5.6c0.3,0,0.6-0.3,0.6-0.6V10.1c0-0.2-0.1-0.4-0.2-0.5l-8.4-7.1C13.6,1.8,12.4,1.8,11.6,2.5z"/>
<rect fill="none" width="26" height="26"/>
</svg>
