<?xml version="1.0" encoding="utf-8"?>
<!-- Generator: Adobe Illustrator 18.1.1, SVG Export Plug-In . SVG Version: 6.00 Build 0)  -->
<svg version="1.1" id="Background_2_" xmlns="http://www.w3.org/2000/svg" xmlns:xlink="http://www.w3.org/1999/xlink" x="0px"
	 y="0px" viewBox="0 0 20 20" enable-background="new 0 0 20 20" xml:space="preserve">
<g id="Grid_2_" display="none" enable-background="new    ">
	<defs>
		<path id="SVGID_1_" enable-background="new    " d="M-1320.7,794.9h85V-705h-85V794.9z M-1215.7,794.9h85V-705h-85V794.9z
			 M-1110.7,794.9h85V-705h-85V794.9z M-1005.7,794.9h85V-705h-85V794.9z M-900.7,794.9h85V-705h-85V794.9z M-795.7,794.9h85V-705
			h-85V794.9z M-690.7,794.9h85V-705h-85V794.9z M-585.7,794.9h85V-705h-85V794.9z M-480.7,794.9h85V-705h-85V794.9z M-375.7,794.9
			h85V-705h-85V794.9z M-270.7,794.9h85V-705h-85V794.9z M-165.7-705V794.9h85V-705H-165.7z"/>
	</defs>
	<clipPath id="SVGID_2_" display="inline">
		<use xlink:href="#SVGID_1_"  overflow="visible"/>
	</clipPath>
</g>
<g>
	<defs>
		<rect id="SVGID_3_" x="131.3" y="-705" width="1280" height="768"/>
	</defs>
	<clipPath id="SVGID_4_">
		<use xlink:href="#SVGID_3_"  overflow="visible"/>
	</clipPath>
</g>
<rect x="0" y="0" fill="none" width="20" height="20"/>
<g>
	<g>
		<path fill="none" stroke="#30373B" stroke-width="0.8578" stroke-miterlimit="10" d="M12.1,18.5H3.6c-1.2,0-2.1-0.9-2.1-2V7
			c0-1.1,0.9-2,2.1-2h5.1C8.9,5,9,5,9.1,5.1l5,4.7c0.1,0.1,0.2,0.2,0.2,0.4v6.3C14.2,17.6,13.3,18.5,12.1,18.5z"/>
		<path fill="none" stroke="#30373B" stroke-width="0.8578" stroke-miterlimit="10" d="M8.9,5.2V8c0,1.1,0.9,2,2.1,2H14"/>
	</g>
	<g>
		<path fill="none" stroke="#30373B" stroke-width="0.8578" stroke-miterlimit="10" d="M5.8,5V3.5c0-1.1,0.9-2,2.1-2H13
			c0.1,0,0.3,0.1,0.4,0.1l5,4.7c0.1,0.1,0.2,0.2,0.2,0.4V13c0,1.1-0.9,2-2.1,2h-2.1"/>
		<path fill="none" stroke="#30373B" stroke-width="0.8578" stroke-miterlimit="10" d="M13.2,1.7v2.8c0,1.1,0.9,2,2.1,2h2.9"/>
	</g>
</g>
</svg>
