<?xml version="1.0" encoding="utf-8"?>
<!-- Generator: Adobe Illustrator 18.1.1, SVG Export Plug-In . SVG Version: 6.00 Build 0)  -->
<svg version="1.1" id="Layer_1" xmlns="http://www.w3.org/2000/svg" xmlns:xlink="http://www.w3.org/1999/xlink" x="0px" y="0px"
	 viewBox="0 0 30 20" enable-background="new 0 0 30 20" xml:space="preserve">
<g>
	<g>
		<path fill="none" stroke="#737373" stroke-miterlimit="10" d="M9.5,12.8c-1.4,0-3-1.5-3.6-3.5c-0.5,0-1-0.6-1-1.3
			c0-0.7,0.3-1.3,0.8-1.4C5.8,3.7,6.6,2,9.5,2s3.8,1.7,3.9,4.5c0.5,0.1,0.8,0.7,0.8,1.4c-0.1,0.7-0.5,1.3-1,1.3
			C12.5,11.4,10.9,12.8,9.5,12.8z"/>
		<path fill="none" stroke="#737373" stroke-miterlimit="10" d="M12.4,11.2c3.1,0.7,5.4,2.2,5.4,5.4c-2.2,1-5.4,1.4-8.3,1.4
			c-2.9,0-6.1-0.4-8.3-1.4c0-3.2,2.2-4.7,5.4-5.4"/>
	</g>
	<g>
		<path fill="none" stroke="#737373" stroke-miterlimit="10" d="M22.5,13.9c-1.1,0-2.3-1.2-2.8-2.8c-0.4,0-0.7-0.5-0.8-1.1
			c0-0.6,0.2-1.1,0.6-1.2c0.1-2.2,0.7-3.6,3-3.6s2.9,1.3,3,3.6c0.4,0.1,0.6,0.6,0.6,1.2c0,0.6-0.4,1.1-0.8,1.1
			C24.7,12.7,23.5,13.9,22.5,13.9z"/>
		<path fill="none" stroke="#737373" stroke-miterlimit="10" d="M18.2,13.3c0.6-0.3,1.3-0.6,2-0.7"/>
		<path fill="none" stroke="#737373" stroke-miterlimit="10" d="M24.7,12.6c2.4,0.6,4.1,1.8,4.1,4.3c-1.7,0.8-4.2,1.1-6.4,1.1
			c-1.1,0-2.3-0.1-3.4-0.3"/>
	</g>
</g>
<rect x="0" fill="none" width="30" height="20"/>
</svg>
