<?xml version="1.0" encoding="utf-8"?>
<!-- Generator: Adobe Illustrator 18.1.1, SVG Export Plug-In . SVG Version: 6.00 Build 0)  -->
<svg version="1.1" id="Layer_1" xmlns="http://www.w3.org/2000/svg" xmlns:xlink="http://www.w3.org/1999/xlink" x="0px" y="0px"
	 viewBox="0 0 20 20" enable-background="new 0 0 20 20" xml:space="preserve">
<g>
	<g>
		<line fill="none" stroke="#737373" stroke-miterlimit="10" x1="9.2" y1="13.7" x2="6.7" y2="8.9"/>
		<circle fill="none" stroke="#737373" stroke-miterlimit="10" cx="10" cy="15.1" r="1.7"/>
		<line fill="none" stroke="#737373" stroke-miterlimit="10" x1="0.5" y1="12.3" x2="2.8" y2="12.3"/>
		<line fill="none" stroke="#737373" stroke-miterlimit="10" x1="19.5" y1="12.3" x2="17.3" y2="12.3"/>
		<line fill="none" stroke="#737373" stroke-miterlimit="10" x1="18.3" y1="7.5" x2="16.3" y2="8.6"/>
		<line fill="none" stroke="#737373" stroke-miterlimit="10" x1="14.8" y1="4" x2="13.7" y2="6"/>
		<line fill="none" stroke="#737373" stroke-miterlimit="10" x1="10" y1="2.8" x2="10" y2="5"/>
		<line fill="none" stroke="#737373" stroke-miterlimit="10" x1="5.3" y1="4" x2="6.4" y2="6"/>
		<line fill="none" stroke="#737373" stroke-miterlimit="10" x1="1.8" y1="7.5" x2="3.7" y2="8.6"/>
		<path fill="none" stroke="#737373" stroke-miterlimit="10" d="M15.8,15.7l2.4,1.4c0.8-1.4,1.3-3,1.3-4.8c0-5.3-4.3-9.5-9.5-9.5
			S0.5,7,0.5,12.3c0,1.7,0.5,3.4,1.3,4.8l2.4-1.4"/>
	</g>
</g>
<rect x="0" fill="none" width="20" height="20"/>
</svg>
