<?xml version="1.0" encoding="utf-8"?>
<!-- Generator: Adobe Illustrator 19.0.0, SVG Export Plug-In . SVG Version: 6.00 Build 0)  -->
<svg version="1.1" id="Background_2_" xmlns="http://www.w3.org/2000/svg" xmlns:xlink="http://www.w3.org/1999/xlink" x="0px"
	 y="0px" viewBox="-954 536 10 10" style="enable-background:new -954 536 10 10;" xml:space="preserve">
<style type="text/css">
	.st0{display:none;enable-background:new    ;}
	.st1{display:inline;}
	.st2{clip-path:url(#SVGID_2_);}
	.st3{fill:none;stroke:#EA212B;stroke-linecap:round;stroke-linejoin:round;stroke-miterlimit:10;}
	.st4{fill:none;}
</style>
<g id="Grid_2_" class="st0">
	<g class="st1">
		<defs>
			<path id="SVGID_1_" d="M-2114.2,1367.5h85V-132.3h-85V1367.5z M-2009.2,1367.5h85V-132.3h-85V1367.5z M-1904.2,1367.5h85V-132.3
				h-85V1367.5z M-1799.2,1367.5h85V-132.3h-85V1367.5z M-1694.2,1367.5h85V-132.3h-85V1367.5z M-1589.2,1367.5h85V-132.3h-85
				V1367.5z M-1484.2,1367.5h85V-132.3h-85V1367.5z M-1379.2,1367.5h85V-132.3h-85V1367.5z M-1274.2,1367.5h85V-132.3h-85V1367.5z
				 M-1169.2,1367.5h85V-132.3h-85V1367.5z M-1064.2,1367.5h85V-132.3h-85V1367.5z M-959.2-132.3v1499.8h85V-132.3H-959.2z"/>
		</defs>
		<clipPath id="SVGID_2_">
			<use xlink:href="#SVGID_1_"  style="overflow:visible;"/>
		</clipPath>
		<g class="st2">
			
				<image style="overflow:visible;enable-background:new    ;" width="1280" height="1500" id="Grid_xA0_Image" xlink:href="6B4246A7A94DBC2D.png"  transform="matrix(1 0 0 1 -2134.1636 -132.312)">
			</image>
		</g>
	</g>
</g>
<path class="st3" d="M-953.3,538.8l4,4.2c0.2,0.2,0.4,0.2,0.6,0l4-4.2"/>
<rect x="-954" y="536" class="st4" width="10" height="10"/>
</svg>
