<?xml version="1.0" encoding="utf-8"?>
<!-- Generator: Adobe Illustrator 18.1.1, SVG Export Plug-In . SVG Version: 6.00 Build 0)  -->
<svg version="1.1" id="Background_2_" xmlns="http://www.w3.org/2000/svg" xmlns:xlink="http://www.w3.org/1999/xlink" x="0px"
	 y="0px" viewBox="0 0 50 50" enable-background="new 0 0 50 50" xml:space="preserve">
<g id="Grid_2_" enable-background="new    ">
</g>
<g>
	<g>
		<rect x="19.6" y="9.7" fill="#F0592B" width="16.6" height="1.2"/>
	</g>
	<g>
		<rect x="19.5" y="32.7" fill="#F0592B" width="16.7" height="1.2"/>
	</g>
	<g>
		<g>
			<path fill="#F0592B" d="M31.3,21.8h-6.4l-1.3-6l9,0.9L31.3,21.8z M25.8,20.6h4.5l0.7-2.8l-6-0.6L25.8,20.6z"/>
		</g>
		<g>
			<rect x="25.7" y="22.9" fill="#F0592B" width="3.6" height="1.2"/>
		</g>
		<g>
			<path fill="#F0592B" d="M30.7,25.5c-1,0-1.8-0.8-1.8-1.8c0-1,0.8-1.8,1.8-1.8c1,0,1.8,0.8,1.8,1.8C32.4,24.7,31.6,25.5,30.7,25.5
				z M30.7,23.1c-0.3,0-0.6,0.3-0.6,0.6c0,0.3,0.3,0.6,0.6,0.6c0.3,0,0.6-0.3,0.6-0.6C31.2,23.4,31,23.1,30.7,23.1z"/>
		</g>
		<g>
			<path fill="#F0592B" d="M24.5,25.5c-1,0-1.8-0.8-1.8-1.8c0-1,0.8-1.8,1.8-1.8c1,0,1.8,0.8,1.8,1.8C26.3,24.7,25.5,25.5,24.5,25.5
				z M24.5,23.1c-0.3,0-0.6,0.3-0.6,0.6c0,0.3,0.3,0.6,0.6,0.6c0.3,0,0.6-0.3,0.6-0.6C25.1,23.4,24.8,23.1,24.5,23.1z"/>
		</g>
		<g>
			
				<rect x="24.3" y="21" transform="matrix(0.8386 0.5448 -0.5448 0.8386 15.9401 -10.0311)" fill="#F0592B" width="1.2" height="1.7"/>
		</g>
		<g>
			
				<rect x="22.3" y="15" transform="matrix(0.7069 0.7074 -0.7074 0.7069 17.9355 -12.0404)" fill="#F0592B" width="2.4" height="1.2"/>
		</g>
	</g>
	<g>
		<rect x="24.2" y="29.6" fill="#F0592B" width="7.3" height="1.2"/>
	</g>
	<g>
		<rect x="27.3" y="34.7" fill="#F0592B" width="1" height="1"/>
	</g>
	<g>
		<g>
			<rect x="24.2" y="27.9" fill="#F0592B" width="1" height="1"/>
		</g>
		<g>
			<rect x="26.3" y="27.9" fill="#F0592B" width="1" height="1"/>
		</g>
		<g>
			<rect x="28.4" y="27.9" fill="#F0592B" width="1" height="1"/>
		</g>
		<g>
			<rect x="30.4" y="27.9" fill="#F0592B" width="1" height="1"/>
		</g>
	</g>
	<path fill="#F0592B" d="M17.8,43l-7.4-8.4l0.4-0.4c0.7-0.7,2.1-2.2,2.5-2.9c0.2-0.5,0.6-4.3,0.5-6.1c-0.1-1.3,0.4-2.7,0.9-4.2
		c0.5-1.5,1-3.1,0.9-4.6c-0.3-2.9-0.2-3.7,0.6-4.5c0.5-0.4,1.1-0.5,1.8-0.4c0.9,0.2,1.6,0.9,1.9,1.9c0.3,0.9,0.4,3.6,0.4,7.9h-1.2
		c0-2.1,0-6.6-0.3-7.5c-0.2-0.6-0.6-1-1.1-1.1c-0.2,0-0.5-0.1-0.7,0.1c-0.3,0.3-0.5,0.5-0.2,3.4c0.1,1.7-0.4,3.4-0.9,5.1
		c-0.4,1.4-0.8,2.7-0.8,3.8c0.1,1.6-0.2,5.8-0.6,6.6c-0.4,0.8-1.5,2.1-2.3,2.9l5.9,6.6c0.9-0.8,1.8-1.3,2.3-1.7l0.2-0.2
		c0.9-0.6,1.9-0.9,2.9-1.2c1.3-0.4,2.9-0.8,4.4-1.9l0.7,1c-1.7,1.2-3.4,1.7-4.8,2.1c-1,0.3-1.9,0.5-2.6,1l-0.2,0.2
		c-0.6,0.4-1.6,1-2.6,2L17.8,43z"/>
	<path fill="#F0592B" d="M37,22.1h-1.5c-1.4,0-2.6-1.2-2.6-2.6c0-1.4,1.2-2.6,2.6-2.6H37c1.4,0,2.6,1.2,2.6,2.6
		C39.6,20.9,38.5,22.1,37,22.1z M35.5,18c-0.8,0-1.4,0.6-1.4,1.4c0,0.8,0.6,1.4,1.4,1.4H37c0.8,0,1.4-0.6,1.4-1.4
		c0-0.8-0.6-1.4-1.4-1.4H35.5z"/>
	<path fill="#F0592B" d="M36.8,25.6h-1c-1.3,0-2.4-1.1-2.4-2.4c0-1.3,1.1-2.4,2.4-2.4h1c1.3,0,2.4,1.1,2.4,2.4
		C39.1,24.6,38.1,25.6,36.8,25.6z M35.8,22.1c-0.6,0-1.2,0.5-1.2,1.2c0,0.6,0.5,1.2,1.2,1.2h1c0.6,0,1.2-0.5,1.2-1.2
		c0-0.6-0.5-1.2-1.2-1.2H35.8z"/>
	<g>
		<path fill="#F0592B" d="M36.5,28.2h-0.5c-0.2,0-0.5-0.1-0.7-0.1v8.2H20.3v-28h15.1v9.3c0,0,0.1,0,0.1,0h1.1V7H19.1v30.4h17.5
			L36.5,28.2C36.6,28.2,36.5,28.2,36.5,28.2z"/>
	</g>
	<path fill="#F0592B" d="M36.5,28.8h-0.5c-1.2,0-2.2-1-2.2-2.2c0-1.2,1-2.2,2.2-2.2h0.5c1.2,0,2.2,1,2.2,2.2
		C38.7,27.8,37.7,28.8,36.5,28.8z M36.1,25.6c-0.5,0-1,0.4-1,1c0,0.5,0.4,1,1,1h0.5c0.5,0,1-0.4,1-1c0-0.5-0.4-1-1-1H36.1z"/>
</g>
<rect y="0" fill="none" width="50" height="50"/>
</svg>
