<?xml version="1.0" encoding="utf-8"?>
<!-- Generator: Adobe Illustrator 18.1.1, SVG Export Plug-In . SVG Version: 6.00 Build 0)  -->
<svg version="1.1" id="Layer_1" xmlns="http://www.w3.org/2000/svg" xmlns:xlink="http://www.w3.org/1999/xlink" x="0px" y="0px"
	 viewBox="0 0 26 26" enable-background="new 0 0 26 26" xml:space="preserve">
<rect y="0" fill="none" width="26" height="26"/>
<g>
	<path fill="none" stroke="#30373B" stroke-width="1.2037" stroke-miterlimit="10" d="M11.2,11.1l8.8-9h3.6v3.7L22,7.5h-2.7v2.8
		h-2.7v2.8l-1.7,1.8c0.9,2.4,0.4,5.2-1.4,7.1c-2.5,2.6-6.6,2.6-9.1,0c-2.5-2.6-2.5-6.8,0-9.3C6.2,10.7,8.9,10.2,11.2,11.1z"/>
	<path fill="none" stroke="#30373B" stroke-width="1.2037" stroke-miterlimit="10" d="M10.2,15.9c0.8,0.8,0.8,2,0,2.8
		c-0.8,0.8-2,0.8-2.7,0c-0.8-0.8-0.8-2,0-2.8C8.2,15.1,9.5,15.1,10.2,15.9z"/>
</g>
</svg>
