<?xml version="1.0" encoding="utf-8"?>
<!-- Generator: Adobe Illustrator 18.1.1, SVG Export Plug-In . SVG Version: 6.00 Build 0)  -->
<svg version="1.1" id="Layer_1" xmlns="http://www.w3.org/2000/svg" xmlns:xlink="http://www.w3.org/1999/xlink" x="0px" y="0px"
	 viewBox="0 0 20 20" enable-background="new 0 0 20 20" xml:space="preserve">
<g>
	<g>
		<path fill="none" stroke="#737373" stroke-miterlimit="10" d="M15.3,1.5H4.7c-1.1,0-1.9,0.9-1.9,2v13c0,1.1,0.9,2,1.9,2h6.4
			c0.2,0,0.5-0.1,0.7-0.3l5.2-4.9c0.2-0.2,0.3-0.5,0.3-0.7V3.5C17.3,2.4,16.4,1.5,15.3,1.5z"/>
		<path fill="none" stroke="#737373" stroke-miterlimit="10" d="M11.5,18.5V15c0-1.1,0.9-2,1.9-2H17"/>
	</g>
	<line fill="none" stroke="#737373" stroke-miterlimit="10" x1="5.2" y1="5" x2="12.9" y2="5"/>
	<line fill="none" stroke="#737373" stroke-miterlimit="10" x1="5.2" y1="15.5" x2="9.1" y2="15.5"/>
	<line fill="none" stroke="#737373" stroke-miterlimit="10" x1="5.2" y1="12" x2="11" y2="12"/>
	<line fill="none" stroke="#737373" stroke-miterlimit="10" x1="5.2" y1="8.5" x2="14.9" y2="8.5"/>
</g>
<rect x="0" fill="none" width="20" height="20"/>
</svg>
