<?xml version="1.0" encoding="utf-8"?>
<!-- Generator: Adobe Illustrator 18.1.1, SVG Export Plug-In . SVG Version: 6.00 Build 0)  -->
<svg version="1.1" id="Background_2_" xmlns="http://www.w3.org/2000/svg" xmlns:xlink="http://www.w3.org/1999/xlink" x="0px"
	 y="0px" viewBox="0 0 16 16" enable-background="new 0 0 16 16" xml:space="preserve">
<g id="Grid_2_" display="none" enable-background="new    ">
	<defs>
		<path id="SVGID_1_" enable-background="new    " d="M-1281,884.8h85V-615h-85V884.8z M-1176,884.8h85V-615h-85V884.8z
			 M-1071,884.8h85V-615h-85V884.8z M-966,884.8h85V-615h-85V884.8z M-861,884.8h85V-615h-85V884.8z M-756,884.8h85V-615h-85V884.8z
			 M-651,884.8h85V-615h-85V884.8z M-546,884.8h85V-615h-85V884.8z M-441,884.8h85V-615h-85V884.8z M-336,884.8h85V-615h-85V884.8z
			 M-231,884.8h85V-615h-85V884.8z M-126-615V884.8h85V-615H-126z"/>
	</defs>
	<clipPath id="SVGID_2_" display="inline">
		<use xlink:href="#SVGID_1_"  overflow="visible"/>
	</clipPath>
</g>
<g>
	<defs>
		<rect id="SVGID_3_" x="171" y="-615" width="1280" height="768"/>
	</defs>
	<clipPath id="SVGID_4_">
		<use xlink:href="#SVGID_3_"  overflow="visible"/>
	</clipPath>
</g>
<g>
	<g>
		<ellipse fill="none" stroke="#EA212B" stroke-linecap="round" stroke-miterlimit="10" cx="8" cy="8" rx="7.3" ry="7.3"/>
		<g>
			<line fill="none" stroke="#EA212B" stroke-linecap="round" stroke-miterlimit="10" x1="8" y1="3.7" x2="8" y2="10.5"/>
			<line fill="none" stroke="#EA212B" stroke-linecap="round" stroke-miterlimit="10" x1="8" y1="12.1" x2="8" y2="12.3"/>
		</g>
	</g>
</g>
<rect x="0" y="0" fill="none" width="16" height="16"/>
</svg>
